<?xml version="1.0" encoding="UTF-8" standalone="no"?>
<svg
   xmlns:dc="http://purl.org/dc/elements/1.1/"
   xmlns:cc="http://creativecommons.org/ns#"
   xmlns:rdf="http://www.w3.org/1999/02/22-rdf-syntax-ns#"
   xmlns:svg="http://www.w3.org/2000/svg"
   xmlns="http://www.w3.org/2000/svg"
   xmlns:sodipodi="http://sodipodi.sourceforge.net/DTD/sodipodi-0.dtd"
   xmlns:inkscape="http://www.inkscape.org/namespaces/inkscape"
   height="108"
   viewBox="0 0 54 54"
   width="108"
   id="svg4186"
   version="1.1"
   inkscape:version="0.91 r13725"
   sodipodi:docname="lesskey_apple_touch.svg"
   style="fill:#000000"
   inkscape:export-filename="/home/remrot/Desktop/passkey_fg.png"
   inkscape:export-xdpi="360"
   inkscape:export-ydpi="360">
  <metadata
     id="metadata4196">
    <rdf:RDF>
      <cc:Work
         rdf:about="">
        <dc:format>image/svg+xml</dc:format>
        <dc:type
           rdf:resource="http://purl.org/dc/dcmitype/StillImage" />
        <dc:title></dc:title>
      </cc:Work>
    </rdf:RDF>
  </metadata>
  <defs
     id="defs4194">
    <marker
       inkscape:stockid="Arrow1Lstart"
       orient="auto"
       refY="0.0"
       refX="0.0"
       id="marker4455"
       style="overflow:visible"
       inkscape:isstock="true">
      <path
         id="path4457"
         d="M 0.0,0.0 L 5.0,-5.0 L -12.5,0.0 L 5.0,5.0 L 0.0,0.0 z "
         style="fill-rule:evenodd;stroke:#000000;stroke-width:1.0pt"
         transform="scale(0.8) translate(12.5,0)" />
    </marker>
    <marker
       inkscape:stockid="Arrow1Lstart"
       orient="auto"
       refY="0.0"
       refX="0.0"
       id="marker4433"
       style="overflow:visible"
       inkscape:isstock="true">
      <path
         id="path4435"
         d="M 0.0,0.0 L 5.0,-5.0 L -12.5,0.0 L 5.0,5.0 L 0.0,0.0 z "
         style="fill-rule:evenodd;stroke:#000000;stroke-width:1.0pt"
         transform="scale(0.8) translate(12.5,0)" />
    </marker>
    <marker
       inkscape:stockid="Arrow1Lstart"
       orient="auto"
       refY="0.0"
       refX="0.0"
       id="marker4417"
       style="overflow:visible"
       inkscape:isstock="true">
      <path
         id="path4419"
         d="M 0.0,0.0 L 5.0,-5.0 L -12.5,0.0 L 5.0,5.0 L 0.0,0.0 z "
         style="fill-rule:evenodd;stroke:#000000;stroke-width:1.0pt"
         transform="scale(0.8) translate(12.5,0)" />
    </marker>
    <marker
       inkscape:stockid="Arrow1Lstart"
       orient="auto"
       refY="0.0"
       refX="0.0"
       id="Arrow1Lstart"
       style="overflow:visible"
       inkscape:isstock="true">
      <path
         id="path4153"
         d="M 0.0,0.0 L 5.0,-5.0 L -12.5,0.0 L 5.0,5.0 L 0.0,0.0 z "
         style="fill-rule:evenodd;stroke:#000000;stroke-width:1.0pt"
         transform="scale(0.8) translate(12.5,0)" />
    </marker>
  </defs>
  <sodipodi:namedview
     pagecolor="#ffffff"
     bordercolor="#666666"
     borderopacity="1"
     objecttolerance="10"
     gridtolerance="10"
     guidetolerance="10"
     inkscape:pageopacity="0"
     inkscape:pageshadow="2"
     inkscape:window-width="1861"
     inkscape:window-height="1056"
     id="namedview4192"
     showgrid="false"
     inkscape:zoom="5.9750525"
     inkscape:cx="30.435813"
     inkscape:cy="45.570008"
     inkscape:window-x="59"
     inkscape:window-y="24"
     inkscape:window-maximized="1"
     inkscape:current-layer="layer2"
     inkscape:showpageshadow="false">
    <inkscape:grid
       type="xygrid"
       id="grid4394" />
  </sodipodi:namedview>
  <path
     d="m 0,1.4491379e-6 53.999999,0 L 53.999999,54 0,54 Z"
     id="path4188"
     inkscape:connector-curvature="0"
     style="fill:none" />
  <g
     inkscape:groupmode="layer"
     id="layer3"
     inkscape:label="Background"
     style="display:inline"
     sodipodi:insensitive="true">
    <rect
       style="fill:#004ba0;fill-opacity:1;stroke:none;stroke-width:0.25;stroke-linejoin:round;stroke-miterlimit:4;stroke-dasharray:none;stroke-opacity:1"
       id="rect4145"
       width="54"
       height="54"
       x="0"
       y="0" />
  </g>
  <g
     inkscape:groupmode="layer"
     id="layer1"
     inkscape:label="Safe Zone Circle"
     style="display:none"
     sodipodi:insensitive="true">
    <circle
       style="fill:none;fill-opacity:0.94117647;stroke:#000000;stroke-width:0.184;stroke-linejoin:round;stroke-miterlimit:4;stroke-dasharray:none;stroke-opacity:1"
       id="path4141"
       cx="27"
       cy="27"
       r="16.408031" />
  </g>
  <g
     inkscape:groupmode="layer"
     id="layer4"
     inkscape:label="Safe Zone Square"
     style="display:none"
     sodipodi:insensitive="true">
    <rect
       style="opacity:0.85;fill:none;fill-opacity:1;fill-rule:nonzero;stroke:#000000;stroke-width:0.24827588;stroke-linecap:round;stroke-linejoin:round;stroke-miterlimit:4;stroke-dasharray:none;stroke-opacity:1"
       id="rect4147"
       width="35.751724"
       height="35.751724"
       x="9.1241379"
       y="9.1241379" />
  </g>
  <g
     inkscape:groupmode="layer"
     id="layer2"
     inkscape:label="Icon"
     style="display:inline">
    <path
       d="m 32.671489,36.977388 c 2.006804,0 3.64873,-1.632664 3.64873,-3.62814 0,-1.995475 -1.641926,-3.628139 -3.64873,-3.628139 -2.006796,0 -3.648723,1.632664 -3.648723,3.628139 0,1.995476 1.641927,3.62814 3.648723,3.62814 z m 10.946179,-16.326641 -1.824364,0 0,-3.628133 c 0,-5.006838 -4.086576,-9.0703537 -9.121815,-9.0703537 -5.035235,0 -9.121806,4.0635157 -9.121806,9.0703537 l 3.466289,0 c 0,-3.102066 2.535861,-5.623621 5.655517,-5.623621 3.119666,0 5.655526,2.521555 5.655526,5.623621 l 0,3.628133 -16.601693,0 c -2.006801,0 -3.648726,1.632667 -3.648726,3.628147 l 0,18.140705 c 0,1.995479 1.641925,3.628141 3.648726,3.628141 l 21.892346,0 c 2.006795,0 3.648727,-1.632662 3.648727,-3.628141 l 0,-18.140705 c 0,-1.99548 -1.641932,-3.628147 -3.648727,-3.628147 z m 0,21.768852 -21.892346,0 0,-18.140705 21.892346,0 0,18.140705 z"
       id="path4190"
       inkscape:connector-curvature="0"
       style="fill:#63a4ff;fill-opacity:1;stroke:none;stroke-opacity:1" />
    <g
       style="fill:#000000"
       id="g4390"
       transform="matrix(0.81529766,0,0,0.81069813,8.7876913,20.874281)">
      <path
         id="path4380"
         d="M 0,0 24,0 24,24 0,24 Z"
         inkscape:connector-curvature="0"
         style="fill:none" />
      <path
         id="path4382"
         d="M 11.115701,10.456387 C 10.155975,7.7293609 7.557692,5.7747969 4.5029544,5.7747969 c -3.87401601,0 -7.0223854,3.1483695 -7.0223854,7.0223851 0,3.874017 3.14836939,7.022386 7.0223854,7.022386 3.0547376,0 5.6530206,-1.954564 6.6127466,-4.68159 l 5.091229,0 0,4.68159 4.68159,0 0,-4.68159 2.340795,0 0,-4.681591 -12.113614,0 z m -6.6127466,4.681591 c -1.2874374,0 -2.3407952,-1.053359 -2.3407952,-2.340796 0,-1.287437 1.0533578,-2.340795 2.3407952,-2.340795 1.2874373,0 2.3407951,1.053358 2.3407951,2.340795 0,1.287437 -1.0533578,2.340796 -2.3407951,2.340796 z"
         inkscape:connector-curvature="0"
         style="fill:#ffffff;fill-opacity:0.94117647" />
    </g>
    <g
       style="fill:#000000"
       id="g4207"
       transform="matrix(0.42450456,0,0,0.42450456,7.0597945,6.27694)">
      <path
         id="path4199"
         d="M 0,0 24,0 24,24 0,24 Z"
         inkscape:connector-curvature="0"
         style="fill:none" />
    </g>
    <path
       id="path4197"
       d="m 6.9621848,17.996558 4.3006472,0 0,-2.259239 -4.3006472,0 z m 0,-9.7412758 0,2.2596588 12.9019362,0 0,-2.2596588 z m 0,6.0004678 8.6012872,0 0,-2.259448 -8.6012872,0 z"
       inkscape:connector-curvature="0"
       style="display:inline;fill:#ffffff;fill-opacity:0.94117647"
       sodipodi:nodetypes="ccccccccccccccc" />
  </g>
</svg>
